<svg xmlns="http://www.w3.org/2000/svg" xmlns:xlink="http://www.w3.org/1999/xlink" width="121.537" height="121.539" viewBox="0 0 121.537 121.539">
  <defs>
    <radialGradient id="radial-gradient" cx="0.5" cy="0.5" r="0.366" gradientTransform="translate(-1.395) scale(3.789 1)" gradientUnits="objectBoundingBox">
      <stop offset="0" stop-color="#efc871"/>
      <stop offset="0.5" stop-color="#e7b336"/>
      <stop offset="1" stop-color="#e1a70e"/>
    </radialGradient>
    <radialGradient id="radial-gradient-2" cy="0.5" r="0.941" gradientTransform="translate(0.297) scale(0.405 1)" xlink:href="#radial-gradient"/>
    <radialGradient id="radial-gradient-3" cy="0.5" r="0.449" gradientTransform="translate(-0.14) scale(1.279 1)" xlink:href="#radial-gradient"/>
    <radialGradient id="radial-gradient-4" cy="0.5" r="0.452" gradientTransform="translate(-0.128) scale(1.255 1)" xlink:href="#radial-gradient"/>
    <radialGradient id="radial-gradient-5" cy="0.5" r="0.452" gradientTransform="translate(-0.128) scale(1.256 1)" xlink:href="#radial-gradient"/>
    <radialGradient id="radial-gradient-6" cy="0.5" r="0.48" gradientTransform="translate(-0.044) scale(1.089 1)" xlink:href="#radial-gradient"/>
    <radialGradient id="radial-gradient-7" cy="0.5" r="0.479" gradientTransform="translate(-0.048) scale(1.096 1)" xlink:href="#radial-gradient"/>
    <radialGradient id="radial-gradient-8" cy="0.5" r="0.412" gradientTransform="translate(-0.335) scale(1.67 1)" xlink:href="#radial-gradient"/>
    <radialGradient id="radial-gradient-9" cy="0.5" r="0.426" gradientTransform="translate(-0.243) scale(1.486 1)" xlink:href="#radial-gradient"/>
    <radialGradient id="radial-gradient-10" cy="0.5" r="0.457" gradientTransform="translate(-0.111) scale(1.222 1)" xlink:href="#radial-gradient"/>
    <radialGradient id="radial-gradient-11" cy="0.5" r="0.358" gradientTransform="translate(-2.584) scale(6.168 1)" xlink:href="#radial-gradient"/>
    <radialGradient id="radial-gradient-12" cx="0.453" cy="0.496" r="0.477" gradientTransform="matrix(0.976, 0, 0, -1, -9.633, 196.387)" xlink:href="#radial-gradient"/>
    <radialGradient id="radial-gradient-13" cy="0.5" r="0.471" gradientTransform="translate(-0.069) scale(1.139 1)" xlink:href="#radial-gradient"/>
    <radialGradient id="radial-gradient-14" cy="0.5" r="0.47" gradientTransform="translate(-0.072) scale(1.144 1)" xlink:href="#radial-gradient"/>
  </defs>
  <g id="Group_7298" data-name="Group 7298" transform="translate(3242.46 -1263.54)">
    <g id="Group_7297" data-name="Group 7297" transform="translate(-3341.039 595.742)">
      <path id="Path_11556" data-name="Path 11556" d="M198.484,788.783H120.227a21.143,21.143,0,0,1-21.08-21.08V689.446a21.143,21.143,0,0,1,21.08-21.08h78.257a21.142,21.142,0,0,1,21.08,21.08V767.7a21.142,21.142,0,0,1-21.08,21.08" transform="translate(0.051 0.052)" fill="#1a1818"/>
      <rect id="Rectangle_25448" data-name="Rectangle 25448" width="120.537" height="120.539" rx="21" transform="translate(99.079 668.297)" fill="none" stroke="#efb546" stroke-miterlimit="10" stroke-width="1"/>
      <path id="Path_11557" data-name="Path 11557" d="M128.838,720.872a2.216,2.216,0,0,1-1.618-1.707,6.751,6.751,0,0,1,.061-3.468,2.793,2.793,0,0,1,2.407-2.017,20.933,20.933,0,0,1,2.958-.028v7.431c-.446-.03-.892-.018-1.339-.007-.228.005-.458.011-.689.011a6.184,6.184,0,0,1-1.781-.214M140.311,680.4a4.163,4.163,0,0,0-.206.91q-.016,19.346-.009,38.689c0,.144-.005.286,0,.43.014.385-.17.543-.552.55-1.175.026-2.35.072-3.529.1-.35.009-.7,0-1.087,0v-.655c0-2.653-.014-5.307.014-7.961a.644.644,0,0,0-.615-.741,14.176,14.176,0,0,0-5.27-.121,5.134,5.134,0,0,0-4.033,3.731,10.908,10.908,0,0,0-.077,4.339,3.988,3.988,0,0,0,1.418,2.505,5.576,5.576,0,0,0,3.643,1.159c.871.012,1.744,0,2.661,0,0,.4,0,.731,0,1.068a2.417,2.417,0,0,1-2.092,2.575c-1.286.148-2.586.181-3.88.225-1.168.04-1.014-.139-1.021,1.042-.007.843.105,1.006.935,1,.411,0,.822.005,1.233.012a14.911,14.911,0,0,0,3.512-.211,4.236,4.236,0,0,0,3.346-3.15c.172-.822.22-1.672.323-2.524H140.1v.675q0,11.056,0,22.115c0,1.14.142,1.282,1.254,1.282h.053c.92,0,1.059-.141,1.059-1.086q0-32.555-.009-65.107a3.649,3.649,0,0,0-.207-.857Z" transform="translate(19.438 9.154)" fill="url(#radial-gradient)"/>
      <path id="Path_11558" data-name="Path 11558" d="M136.055,699.528c.016,2.306.049,4.613.047,6.919a.663.663,0,0,1-.358.5,3.6,3.6,0,0,1-1.1.125c-.961-.014-1.922-.065-2.884-.1-.648-.023-.806-.179-.806-.833,0-1.99-.005-3.981,0-5.969,0-.355-.07-.66-.46-.722a22.4,22.4,0,0,0-2.458-.318,13.7,13.7,0,0,0-2.5.111,4.505,4.505,0,0,0-4.262,4.815c-.025,2.347-.005,4.694-.005,7.113-.773.074-1.523.206-2.271.2-2.055,0-4.111-.054-6.166-.1-1.05-.021-2.1-.074-3.151-.1-1.481-.042-2.964-.058-4.443-.116-1.08-.042-2.157-.137-3.236-.211v2.261c1.574.107,3.146.235,4.722.316,1.319.065,2.64.084,3.96.111,1.983.044,3.967.116,5.95.1,1.815-.016,3.629-.114,5.446-.209,1.275-.065,1.449-.278,1.449-1.563,0-2.4-.014-4.8.009-7.208a5.4,5.4,0,0,1,.239-1.664,2.383,2.383,0,0,1,.782-1.073c1.261-.945,2.7-.666,4.137-.536,0,1.973-.026,3.873.009,5.771a1.828,1.828,0,0,0,1.5,2.02,4.294,4.294,0,0,0,1.144.16c1.876-.016,3.75-.056,5.628-.1.771-.018,1.172-.283,1.281-.841a5.06,5.06,0,0,0,.119-.945c.009-2.582.019-5.165,0-7.745-.005-.75-.1-.8-.848-.8-.306,0-.613.025-.915-.005a.959.959,0,0,0-.1-.005c-.409,0-.457.309-.455.636" transform="translate(2.212 23.15)" fill="url(#radial-gradient-2)"/>
      <path id="Path_11559" data-name="Path 11559" d="M128.084,713.174a3.979,3.979,0,0,1,3.893-.309c1.379.7,1.556,2.133,1.556,3.77h-6.542a4.007,4.007,0,0,1,1.093-3.461m.808-2.637A4.875,4.875,0,0,0,126,712.046a5.991,5.991,0,0,0-1.435,3.933,37.457,37.457,0,0,0,.221,4.741,4.217,4.217,0,0,0,2.036,3.194,15.382,15.382,0,0,0,2.243.926h3.659c.019-.028.037-.079.058-.083.629-.084,1.265-.134,1.887-.253.29-.056.75-.2.794-.38a4.87,4.87,0,0,0-.011-1.428c0-.046-.213-.114-.325-.111-.388.018-.773.084-1.161.1-1.358.047-2.712.109-4.068.1a2.675,2.675,0,0,1-2.154-.961,4.915,4.915,0,0,1-.815-3.441H135.3c.246,0,.553.056.532-.337a25.255,25.255,0,0,0-.248-3.819,4.446,4.446,0,0,0-3.389-3.533,7.5,7.5,0,0,0-2-.278,7.058,7.058,0,0,0-1.31.123" transform="translate(19.279 31.868)" fill="url(#radial-gradient-3)"/>
      <path id="Path_11560" data-name="Path 11560" d="M150.129,722.342a2.984,2.984,0,0,1-1.383-2.284c-.114-.789-.116-1.595-.169-2.393-.028-.007-.058-.016-.086-.021a29.235,29.235,0,0,1,.478-3.074,2.6,2.6,0,0,1,2.524-2.018,3.475,3.475,0,0,1,2.612.653,2.862,2.862,0,0,1,1.019,1.848,13.732,13.732,0,0,1-.06,5.453,2.955,2.955,0,0,1-3.032,2.331,3.886,3.886,0,0,1-1.9-.5m-1.435-11.063a5.36,5.36,0,0,0-2.4,4.594,17.125,17.125,0,0,0,.186,4.847,4.805,4.805,0,0,0,2.061,3.2,17.874,17.874,0,0,0,2.027.919h2.693c.19-.061.379-.13.573-.183,2.665-.757,3.635-2.791,3.812-5.126a26.124,26.124,0,0,0-.1-4.385,4.992,4.992,0,0,0-2.217-3.8,5.634,5.634,0,0,0-2.516-.847,7.362,7.362,0,0,0-1.031-.074,5.713,5.713,0,0,0-3.079.857" transform="translate(35.661 31.873)" fill="url(#radial-gradient-4)"/>
      <path id="Path_11561" data-name="Path 11561" d="M140.8,721.825a5.678,5.678,0,0,1-.829-2.011,13.688,13.688,0,0,1-.179-2.173,8.349,8.349,0,0,1,.474-3.29,2.8,2.8,0,0,1,2.393-1.8,3.745,3.745,0,0,1,2.329.388,3.317,3.317,0,0,1,1.505,2.711,16.449,16.449,0,0,1,.107,2.881,5.937,5.937,0,0,1-.676,2.89A2.628,2.628,0,0,1,144,722.735a6.971,6.971,0,0,1-1.022.088,2.491,2.491,0,0,1-2.177-1m1.451-11.331a5.349,5.349,0,0,0-2.985,1.3,5.935,5.935,0,0,0-1.769,4.439,24.248,24.248,0,0,0,.22,4.358,4.394,4.394,0,0,0,2.127,3.366,18.947,18.947,0,0,0,2.04.877h2.691a1.012,1.012,0,0,1,.214-.105,4.694,4.694,0,0,0,3.666-3.287,14.854,14.854,0,0,0,.211-6.789,4.544,4.544,0,0,0-2.855-3.7,6.471,6.471,0,0,0-2.559-.522,7.5,7.5,0,0,0-1,.07" transform="translate(29.057 31.876)" fill="url(#radial-gradient-5)"/>
      <path id="Path_11562" data-name="Path 11562" d="M163.034,709.066c-.007,1.5-.135,1.349,1.391,1.37A.929.929,0,0,0,165.4,710v-1.614c-.156-.545-.562-.543-.985-.543q-.076,0-.153,0h-.179c-1.316,0-1.042.237-1.047,1.226" transform="translate(48.377 29.92)" fill="url(#radial-gradient-6)"/>
      <path id="Path_11563" data-name="Path 11563" d="M163.5,705.923c-.183.032-.351.341-.455.557a1.324,1.324,0,0,0-.014.529c0,1.63-.17,1.449,1.449,1.476a.916.916,0,0,0,.917-.439v-1.614c-.169-.176-.318-.467-.515-.5a4.271,4.271,0,0,0-.72-.061,3.951,3.951,0,0,0-.662.054" transform="translate(48.375 28.429)" fill="url(#radial-gradient-7)"/>
      <path id="Path_11564" data-name="Path 11564" d="M118.788,719.1a3.485,3.485,0,0,1,3.188-2.565c1.061-.109,2.133-.116,3.255-.172v7.875h-6.768c.1-1.723-.221-3.45.325-5.138M127,707.474c-.339.028-.682.005-1.024.005-.673,0-.722.053-.722.748v6.14a40.329,40.329,0,0,0-4.234.03,4.9,4.9,0,0,0-4.058,2.751,9.171,9.171,0,0,0-.841,3.831c-.067,1.558-.046,3.122-.005,4.678.025.947.126,1.082,1.068,1.086,3.137.005,6.277,0,9.412,0,.857,0,1.024-.167,1.024-1.024V708.4c0-.107.005-.218,0-.323-.021-.362-.144-.608-.536-.608-.026,0-.054,0-.083,0" transform="translate(12.863 29.64)" fill="url(#radial-gradient-8)"/>
      <path id="Path_11565" data-name="Path 11565" d="M155.879,710.569c-.348.026-.659.1-.66.62-.014,4.063-.054,8.126-.1,12.189-.014,1.442-.016,1.407,1.412,1.39.8-.01.957-.161.957-.971q0-5.323,0-10.649V712.5c.808,0,1.546,0,2.282,0a2.7,2.7,0,0,1,2.781,3.023c-.023,2.563,0,5.126-.007,7.691-.007,1.674-.09,1.567,1.569,1.556.632,0,.692-.065.692-.724,0-2.746.005-5.488,0-8.232a11.736,11.736,0,0,0-.109-1.59,3.891,3.891,0,0,0-2.832-3.438,8.99,8.99,0,0,0-2.426-.413c-.09,0-.179,0-.269,0-1.094,0-2.194.118-3.29.2" transform="translate(42.402 31.832)" fill="url(#radial-gradient-9)"/>
      <path id="Path_11566" data-name="Path 11566" d="M137.629,698.254a.753.753,0,0,0-.441.583c.012.471-.286,1.056.327,1.391a.568.568,0,0,0,.258.035c.32,0,.639,0,.959-.007.685-.009,1.372-.019,2.057.025a3.182,3.182,0,0,1,3.016,2.642c.227,1.551.237,3.137.346,4.773h-5.939c-1.627,0-1.618,0-1.6,1.651.005.43.163.611.6.611,2.8-.009,5.591-.014,8.386,0,.487,0,.7-.246.694-.655a40.677,40.677,0,0,0-.213-6.782,4.895,4.895,0,0,0-3.452-4.079,8.507,8.507,0,0,0-2.591-.364,21,21,0,0,0-2.414.172" transform="translate(28.4 22.537)" fill="url(#radial-gradient-10)"/>
      <path id="Path_11567" data-name="Path 11567" d="M164.223,710.541c-.137,0-.29,0-.46,0-.68,0-.733.049-.733.736q0,5.918,0,11.837c0,1.572-.307,1.533,1.578,1.525.473,0,.7-.176.692-.7-.026-2.115-.012-4.232-.012-6.347q0-2.772,0-5.544c0-1.388.125-1.509-.754-1.509-.093,0-.195,0-.311,0" transform="translate(48.378 31.961)" fill="url(#radial-gradient-11)"/>
      <rect id="Rectangle_25449" data-name="Rectangle 25449" width="2.681" height="2.617" transform="translate(138.089 716.229)" fill="url(#radial-gradient-12)"/>
      <path id="Path_11568" data-name="Path 11568" d="M121.3,697.046c.018,1,.137,1.121,1.128,1.133,1.53.021,1.23-.168,1.244-1.256v-.269c0-1.059,0-1.036-1.047-1.066-.126,0-.241-.005-.344-.005-.9,0-1,.181-.98,1.463" transform="translate(16.812 20.646)" fill="none"/>
      <path id="Path_11569" data-name="Path 11569" d="M106.414,709.639v.538c0,.4.211.687.6.645a2.281,2.281,0,0,1,.508.025c.441.051.884.1,1.147-.472a.579.579,0,0,0,.007-.214c0-.339-.012-.682,0-1.021a.672.672,0,0,0-.581-.752,2.473,2.473,0,0,0-.617-.091c-.7,0-1.065.45-1.065,1.344" transform="translate(5.55 30.265)" fill="url(#radial-gradient-13)"/>
      <path id="Path_11570" data-name="Path 11570" d="M104.683,708.37a.626.626,0,0,0-.6.766c.046.388-.044.794.03,1.172.039.191.283.371.474.488a.5.5,0,0,0,.309.025c.056-.005.111-.011.165-.011,1.447.032,1.177-.207,1.18-1.156a3.027,3.027,0,0,1,.007-.536c.079-.487-.214-.69-.613-.752a2.869,2.869,0,0,0-.462-.037,3.045,3.045,0,0,0-.492.04" transform="translate(3.781 30.291)" fill="url(#radial-gradient-14)"/>
    </g>
  </g>
</svg>
