<svg xmlns="http://www.w3.org/2000/svg" xmlns:xlink="http://www.w3.org/1999/xlink" width="131.173" height="111.565" viewBox="0 0 131.173 111.565">
  <defs>
    <linearGradient id="linear-gradient" x1="0.118" y1="0.854" x2="0.864" y2="-0.024" gradientUnits="objectBoundingBox">
      <stop offset="0" stop-color="#009d6d"/>
      <stop offset="1" stop-color="#79e283"/>
    </linearGradient>
    <linearGradient id="linear-gradient-2" x1="0.108" y1="0.914" x2="1.059" y2="-0.079" xlink:href="#linear-gradient"/>
    <linearGradient id="linear-gradient-3" x1="-0.639" y1="1.194" x2="0.914" y2="0.107" xlink:href="#linear-gradient"/>
  </defs>
  <g id="Group_5" data-name="Group 5" transform="translate(-80.871 -306.264)">
    <g id="Group_1" data-name="Group 1" transform="translate(130.556 341.928)">
      <path id="Path_1" data-name="Path 1" d="M157.441,346.967H145.194V334.72H132.761v12.247H120.514V359.4h12.247v12.247h12.434V359.4h12.247Z" transform="translate(-120.514 -334.72)" fill="#39be77"/>
      <path id="Path_2" data-name="Path 2" d="M148.942,359.4h6.025V346.967H142.719V334.72H130.286v5.308C134.16,348.2,141.085,354.729,148.942,359.4Z" transform="translate(-118.039 -334.72)" fill="#2cd889" opacity="0.39"/>
    </g>
    <g id="Group_2" data-name="Group 2" transform="translate(80.871 306.264)">
      <path id="Path_3" data-name="Path 3" d="M165.464,387.593c-2.784,1.361-16.3,0-16.443,1.616-.424,4.665,8.784,6.259,11.271,6.764,10.354,2.1,18.608-4.047,30.709-15.426,12.491-11.746,22.067-29.3,20.957-45.123-1.565-22.317-21.61-33.662-39.444-27.491a50.549,50.549,0,0,0-22.086,14.594,3.4,3.4,0,0,1-5.186,0,50.551,50.551,0,0,0-22.085-14.594c-17.836-6.17-37.729,5.775-41.542,26.862-4.593,25.406,12.474,54.633,41.935,72.819,7.368,4.55,29.849,12.773,41.18,9.443,7.4-2.174,26.135-16.982,24.091-19.019-5.14-5.119-17.4,7.7-26.585,7.077-8.614-.588-14.29-2.153-17.227-6.461-4.771-7-3.8-16.187-6.11-15.413-5.558-1.859-1.8,12.405-6.506,9.562-19.9-12.009-31.475-31.6-28.4-48.6,2.524-13.959,15.7-21.869,27.5-17.783a33.946,33.946,0,0,1,13.819,8.761,3.434,3.434,0,0,0,5.041,0,33.947,33.947,0,0,1,13.819-8.761c11.807-4.086,24.979,3.824,27.5,17.783,1.965,10.868-2.074,22.781-10.426,33.106-3.592-1.369-11.573-6.072-13.9-2.474-1.407,2.177,3.388,3.707,3.984,5.419C172.218,382.78,167.58,386.559,165.464,387.593Z" transform="translate(-80.871 -306.264)" fill="url(#linear-gradient)"/>
      <path id="Path_4" data-name="Path 4" d="M161.51,408.048c7.877-1.253,16.375-9.706,24.786-12.656a.506.506,0,0,0-.117-.2c-5.14-5.119-17.4,7.7-26.585,7.077-8.614-.588-14.29-2.153-17.227-6.461-4.771-7-3.8-16.187-6.11-15.413-5.558-1.859-1.8,12.405-6.506,9.562-19.9-12.009-31.475-31.6-28.4-48.6,2.524-13.959,15.7-21.869,27.5-17.785a36.03,36.03,0,0,1,7.792,3.784c-8.729-6.47-17.388-11.9-28.518-9.083-7.212,1.829-14.239,9.488-15.824,16.8C83.677,374.824,132.207,412.714,161.51,408.048Z" transform="translate(-78.231 -303.417)" opacity="0.48" fill="url(#linear-gradient-2)" style="mix-blend-mode: screen;isolation: isolate"/>
      <path id="Path_5" data-name="Path 5" d="M198.185,335.424c-1.565-22.317-21.61-33.662-39.444-27.491a53.8,53.8,0,0,0-14.352,7.469c.06.386,15.117-5.419,24.1-3.057,17.732,4.666,21.78,21.184,19.307,36.955-2.178,13.894-17.674,36.726-35.732,43.165-3.642,1.3-12.18-.42-15.477-3.888-.808.13-1.306.328-1.334.632-.424,4.665,8.785,6.259,11.271,6.764,10.354,2.1,18.608-4.047,30.709-15.426C189.719,368.8,199.3,351.25,198.185,335.424Z" transform="translate(-67.1 -306.264)" opacity="0.48" fill="url(#linear-gradient-3)" style="mix-blend-mode: screen;isolation: isolate"/>
    </g>
  </g>
</svg>
