<svg xmlns="http://www.w3.org/2000/svg" width="29.225" height="23.92" viewBox="0 0 29.225 23.92">
  <path id="Academic" d="M33.909,28.3l-13.8-6.9a1.243,1.243,0,0,0-1.016,0l-13.8,6.9a.428.428,0,0,0,0,.814l2.087,1.042h-.11V41.685a.909.909,0,0,0-.36.38l-.9,1.824a.912.912,0,0,0,.814,1.317H8.65a.912.912,0,0,0,.818-1.321l-.9-1.82a.909.909,0,0,0-.36-.38V30.558L10.48,31.7v5.64c0,1.279.973,2.466,2.732,3.346a14.64,14.64,0,0,0,6.4,1.327A14.64,14.64,0,0,0,26,40.686c1.762-.879,2.732-2.07,2.732-3.346V31.7l5.192-2.6a.428.428,0,0,0,0-.814ZM8.65,44.3H6.823l.912-1.824ZM27.815,37.34c0,.915-.792,1.814-2.226,2.531A13.752,13.752,0,0,1,19.6,41.1a13.752,13.752,0,0,1-5.987-1.233c-1.434-.717-2.226-1.622-2.226-2.531V32.148l7.7,3.862a1.243,1.243,0,0,0,1.016,0l7.707-3.855ZM19.7,35.189a.324.324,0,0,1-.1,0,.363.363,0,0,1-.1,0L6.518,28.7l12.98-6.49a.325.325,0,0,1,.1,0,.363.363,0,0,1,.1,0l12.98,6.49Z" transform="translate(-4.999 -21.286)" fill="#edbb45"/>
</svg>
